<svg xmlns="http://www.w3.org/2000/svg" width="980" height="420" viewBox="0 0 980 420" role="img" aria-labelledby="title desc">
  <title id="title">NO8D-A/B preview node illustration</title>
  <desc id="desc">An illustration of the A/B preview node showing a split image comparison and centered history thumbnails.</desc>
  <rect width="980" height="420" rx="24" fill="#111820"/>
  <rect x="46" y="36" width="888" height="344" rx="18" fill="#252525" stroke="#424242"/>
  <rect x="46" y="36" width="888" height="42" rx="18" fill="#333"/>
  <text x="82" y="64" fill="#dedede" font-family="Inter,Segoe UI,Arial,sans-serif" font-size="22" font-weight="700">NO8D-A/B preview</text>
  <circle cx="64" cy="57" r="7" fill="#8a8a8a"/>

  <rect x="88" y="106" width="804" height="210" rx="10" fill="#101820" stroke="#303a44"/>
  <clipPath id="previewClip"><rect x="88" y="106" width="804" height="210" rx="10"/></clipPath>
  <g clip-path="url(#previewClip)">
    <rect x="88" y="106" width="402" height="210" fill="#1b2b38"/>
    <rect x="490" y="106" width="402" height="210" fill="#2a2030"/>
    <circle cx="315" cy="208" r="66" fill="#dfe8ff"/>
    <circle cx="672" cy="208" r="66" fill="#ffe1ec"/>
    <path d="M240 284C270 245 360 245 392 284" fill="none" stroke="#87d4ff" stroke-width="12" stroke-linecap="round"/>
    <path d="M598 284C630 235 724 239 760 284" fill="none" stroke="#ff8ab3" stroke-width="12" stroke-linecap="round"/>
    <line x1="490" y1="106" x2="490" y2="316" stroke="#ffffff" stroke-width="4"/>
    <circle cx="490" cy="211" r="18" fill="#ffffff"/>
    <text x="484" y="218" fill="#101820" font-family="Inter,Segoe UI,Arial,sans-serif" font-size="18" font-weight="700">↔</text>
  </g>
  <text x="112" y="136" fill="#dceeff" font-family="Inter,Segoe UI,Arial,sans-serif" font-size="16" font-weight="700">A</text>
  <text x="852" y="136" fill="#ffdce8" font-family="Inter,Segoe UI,Arial,sans-serif" font-size="16" font-weight="700">B</text>

  <rect x="104" y="330" width="48" height="34" rx="7" fill="#20222a" stroke="#2d7dff"/>
  <text x="117" y="353" fill="#ffffff" font-family="Inter,Segoe UI,Arial,sans-serif" font-size="16">⇄</text>
  <g transform="translate(286 336)">
    <rect x="0" y="0" width="42" height="24" rx="5" fill="#30465b" stroke="#67b7ff"/>
    <rect x="52" y="0" width="42" height="24" rx="5" fill="#30465b" stroke="#67b7ff"/>
    <rect x="104" y="0" width="42" height="24" rx="5" fill="#30465b" stroke="#67b7ff"/>
    <rect x="156" y="0" width="42" height="24" rx="5" fill="#30465b" stroke="#67b7ff"/>
    <rect x="208" y="0" width="42" height="24" rx="5" fill="#30465b" stroke="#67b7ff"/>
    <rect x="260" y="0" width="42" height="24" rx="5" fill="#30465b" stroke="#67b7ff"/>
    <rect x="312" y="0" width="42" height="24" rx="5" fill="#30465b" stroke="#67b7ff"/>
    <rect x="364" y="0" width="42" height="24" rx="5" fill="#30465b" stroke="#67b7ff"/>
  </g>
  <text x="648" y="354" fill="#9db0c8" font-family="Inter,Segoe UI,Arial,sans-serif" font-size="14">up to 8 centered history thumbnails</text>
</svg>
