<svg xmlns="http://www.w3.org/2000/svg" width="980" height="500" viewBox="0 0 980 500" role="img" aria-labelledby="title desc">
  <title id="title">NO8D-Inpainting node illustration</title>
  <desc id="desc">An illustration of the Inpainting node with sampler controls, brush and lasso mask tools, denoise control, and preview area.</desc>
  <rect width="980" height="500" rx="24" fill="#111820"/>
  <rect x="38" y="34" width="904" height="430" rx="18" fill="#262626" stroke="#424242"/>
  <rect x="38" y="34" width="904" height="42" rx="18" fill="#333333"/>
  <text x="76" y="62" fill="#dedede" font-family="Inter,Segoe UI,Arial,sans-serif" font-size="22" font-weight="700">NO8D-Inpainting</text>
  <circle cx="58" cy="55" r="7" fill="#8a8a8a"/>
  <text x="58" y="108" fill="#c7c7c7" font-family="Inter,Segoe UI,Arial,sans-serif" font-size="15">model</text>
  <text x="58" y="135" fill="#c7c7c7" font-family="Inter,Segoe UI,Arial,sans-serif" font-size="15">clip</text>
  <text x="58" y="162" fill="#c7c7c7" font-family="Inter,Segoe UI,Arial,sans-serif" font-size="15">positive</text>
  <text x="58" y="189" fill="#c7c7c7" font-family="Inter,Segoe UI,Arial,sans-serif" font-size="15">negative</text>
  <text x="843" y="108" fill="#c7c7c7" font-family="Inter,Segoe UI,Arial,sans-serif" font-size="15">image</text>
  <text x="843" y="135" fill="#c7c7c7" font-family="Inter,Segoe UI,Arial,sans-serif" font-size="15">latent</text>
  <text x="843" y="162" fill="#c7c7c7" font-family="Inter,Segoe UI,Arial,sans-serif" font-size="15">mask</text>

  <rect x="58" y="224" width="864" height="54" fill="#1d1d1d" stroke="#333"/>
  <text x="76" y="258" fill="#ffffff" font-family="Inter,Segoe UI,Arial,sans-serif" font-size="19" font-weight="700">Sampler</text>
  <rect x="150" y="235" width="330" height="32" rx="4" fill="#3a3a3a" stroke="#8a8a8a"/>
  <text x="163" y="257" fill="#ffffff" font-family="Inter,Segoe UI,Arial,sans-serif" font-size="15">euler</text>
  <text x="506" y="258" fill="#ffffff" font-family="Inter,Segoe UI,Arial,sans-serif" font-size="19" font-weight="700">Sched</text>
  <rect x="580" y="235" width="322" height="32" rx="4" fill="#3a3a3a" stroke="#8a8a8a"/>
  <text x="593" y="257" fill="#ffffff" font-family="Inter,Segoe UI,Arial,sans-serif" font-size="15">simple</text>

  <rect x="58" y="278" width="864" height="54" fill="#1d1d1d" stroke="#333"/>
  <text x="76" y="312" fill="#ffffff" font-family="Inter,Segoe UI,Arial,sans-serif" font-size="18" font-weight="700">Steps</text>
  <rect x="137" y="289" width="86" height="32" rx="4" fill="#3a3a3a" stroke="#8a8a8a"/>
  <text x="150" y="311" fill="#ffffff" font-family="Inter,Segoe UI,Arial,sans-serif" font-size="15">6</text>
  <text x="250" y="312" fill="#ffffff" font-family="Inter,Segoe UI,Arial,sans-serif" font-size="18" font-weight="700">CFG</text>
  <rect x="302" y="289" width="86" height="32" rx="4" fill="#3a3a3a" stroke="#8a8a8a"/>
  <text x="315" y="311" fill="#ffffff" font-family="Inter,Segoe UI,Arial,sans-serif" font-size="15">1</text>
  <text x="512" y="312" fill="#ffffff" font-family="Inter,Segoe UI,Arial,sans-serif" font-size="18" font-weight="700">Seed</text>
  <rect x="570" y="289" width="250" height="32" rx="4" fill="#3a3a3a" stroke="#8a8a8a"/>
  <text x="583" y="311" fill="#ffffff" font-family="Inter,Segoe UI,Arial,sans-serif" font-size="15">580714124722246</text>
  <rect x="850" y="287" width="44" height="36" fill="#123056" stroke="#2d7dff"/>
  <text x="862" y="312" fill="#ffd37a" font-family="Inter,Segoe UI,Arial,sans-serif" font-size="19">🔒</text>

  <rect x="58" y="332" width="864" height="54" fill="#1d1d1d" stroke="#333"/>
  <rect x="76" y="342" width="44" height="36" rx="5" fill="#15385d" stroke="#2d7dff"/>
  <text x="89" y="367" fill="#ffffff" font-family="Inter,Segoe UI,Arial,sans-serif" font-size="19">🖌</text>
  <rect x="130" y="342" width="44" height="36" rx="5" fill="#20202c" stroke="#2d7dff"/>
  <text x="143" y="367" fill="#caa6ff" font-family="Inter,Segoe UI,Arial,sans-serif" font-size="19">⌁</text>
  <text x="198" y="366" fill="#ffffff" font-family="Inter,Segoe UI,Arial,sans-serif" font-size="18" font-weight="700">Brush</text>
  <rect x="263" y="343" width="86" height="32" rx="4" fill="#3a3a3a" stroke="#8a8a8a"/>
  <text x="276" y="365" fill="#ffffff" font-family="Inter,Segoe UI,Arial,sans-serif" font-size="15">10</text>
  <text x="381" y="366" fill="#ffffff" font-family="Inter,Segoe UI,Arial,sans-serif" font-size="18" font-weight="700">Feather</text>
  <rect x="466" y="343" width="86" height="32" rx="4" fill="#3a3a3a" stroke="#8a8a8a"/>
  <text x="479" y="365" fill="#ffffff" font-family="Inter,Segoe UI,Arial,sans-serif" font-size="15">30</text>
  <text x="584" y="366" fill="#ffffff" font-family="Inter,Segoe UI,Arial,sans-serif" font-size="18" font-weight="700">Color</text>
  <rect x="650" y="345" width="48" height="28" rx="4" fill="#66ccff" stroke="#9ee4ff"/>
  <text x="744" y="366" fill="#ffffff" font-family="Inter,Segoe UI,Arial,sans-serif" font-size="18" font-weight="700">Denoise</text>
  <rect x="832" y="343" width="70" height="32" rx="4" fill="#3a3a3a" stroke="#8a8a8a"/>
  <text x="845" y="365" fill="#ffffff" font-family="Inter,Segoe UI,Arial,sans-serif" font-size="15">0.75</text>

  <rect x="95" y="398" width="520" height="46" fill="#0b0d10"/>
  <circle cx="360" cy="421" r="28" fill="#e8fff6"/>
  <path d="M332 414C352 391 392 397 403 423C392 439 354 441 334 426Z" fill="#66ccff" opacity=".45" stroke="#66ccff" stroke-width="3"/>
  <rect x="630" y="398" width="292" height="46" fill="#101820"/>
  <text x="652" y="426" fill="#9db0c8" font-family="Inter,Segoe UI,Arial,sans-serif" font-size="15">mask history: up to 8 session previews</text>
</svg>
